<svg width="24" height="25" viewBox="0 0 24 25" fill="none" xmlns="http://www.w3.org/2000/svg">
<path d="M21.0418 4.1996V6.86087C21.0418 8.06373 20.0439 9.03306 18.8139 9.03306H17.4085C16.1784 9.03306 15.1673 8.06373 15.1673 6.86087V4.19005H8.83272V6.86087C8.83272 8.06373 7.8216 9.03306 6.59174 9.03306H5.18605C3.95615 9.03306 2.95826 8.06373 2.95826 6.86087V4.1996C1.88331 4.23129 1 5.10105 1 6.17011V21.7664C1 22.8555 1.90281 23.7501 3.01666 23.7501H20.9833C22.0955 23.7501 23 22.8537 23 21.7664V6.17011C23 5.10105 22.1167 4.23129 21.0418 4.1996ZM20.389 20.7952C20.389 21.2659 19.9987 21.6477 19.5172 21.6477H4.44442C3.96288 21.6477 3.57259 21.2659 3.57259 20.7952V12.7391C3.57259 12.2683 3.96283 11.8864 4.44442 11.8864H19.5171C19.9987 11.8864 20.389 12.2683 20.389 12.7391L20.389 20.7952Z" fill="black" fill-opacity="0.3"/>
<path fill-rule="evenodd" clip-rule="evenodd" d="M5.18107 7.60636H6.57123C6.99318 7.60636 7.3353 7.27232 7.3353 6.85972V2.49691C7.3353 2.08427 6.99318 1.75 6.57123 1.75H5.18107C4.75907 1.75 4.41699 2.08427 4.41699 2.49691V6.85972C4.41699 7.27232 4.75907 7.60636 5.18107 7.60636ZM8.43711 13.3884C8.71918 13.3884 8.94778 13.6117 8.94778 13.8873V15.6296C8.94778 15.9056 8.71918 16.1289 8.43711 16.1289H6.65505C6.3733 16.1289 6.14465 15.9056 6.14465 15.6296V13.8873C6.14465 13.6117 6.3733 13.3884 6.65505 13.3884H8.43711ZM12.8913 13.3884C13.1728 13.3884 13.4015 13.6117 13.4015 13.8873V15.6296C13.4015 15.9056 13.1728 16.1289 12.8913 16.1289H11.109C10.8273 16.1289 10.5986 15.9056 10.5986 15.6296V13.8873C10.5986 13.6117 10.8273 13.3884 11.109 13.3884H12.8913ZM17.8553 13.8873C17.8553 13.6117 17.6266 13.3884 17.3449 13.3884H15.5628C15.2807 13.3884 15.0521 13.6117 15.0521 13.8873V15.6296C15.0521 15.9056 15.2807 16.1289 15.5628 16.1289H17.3449C17.6266 16.1289 17.8553 15.9056 17.8553 15.6296V13.8873ZM8.43711 17.7437C8.71918 17.7437 8.94778 17.9667 8.94778 18.2428V19.9848C8.94778 20.2605 8.71918 20.4839 8.43711 20.4839H6.65505C6.3733 20.4839 6.14465 20.2606 6.14465 19.9848V18.2428C6.14465 17.9667 6.3733 17.7437 6.65505 17.7437H8.43711ZM13.4015 18.2428C13.4015 17.9667 13.1728 17.7437 12.8913 17.7437H11.109C10.8273 17.7437 10.5986 17.9667 10.5986 18.2428V19.9848C10.5986 20.2606 10.8273 20.4839 11.109 20.4839H12.8913C13.1728 20.4839 13.4015 20.2605 13.4015 19.9848V18.2428ZM17.3451 17.7437C17.6266 17.7437 17.8553 17.9667 17.8553 18.2428V19.9848C17.8553 20.2605 17.6266 20.4839 17.3451 20.4839H15.5628C15.2807 20.4839 15.0521 20.2606 15.0521 19.9848V18.2428C15.0521 17.9667 15.2807 17.7437 15.5628 17.7437H17.3451ZM18.7808 7.60636H17.3906C16.9687 7.60636 16.6266 7.27232 16.6266 6.85972V2.49691C16.6266 2.08427 16.9687 1.75 17.3906 1.75H18.7808C19.2025 1.75 19.5446 2.08427 19.5446 2.49691V6.85972C19.5446 7.27232 19.2024 7.60636 18.7808 7.60636Z" fill="#599195"/>
</svg>
