<svg width="24" height="24" viewBox="0 0 24 24" fill="none" xmlns="http://www.w3.org/2000/svg">
<path opacity="0.3" d="M12.0002 4.25928C12.1491 4.25916 12.3003 4.29242 12.4428 4.36276C12.64 4.46009 12.7996 4.61972 12.897 4.81693L14.9392 8.95486L19.5056 9.61841C20.0522 9.69783 20.4309 10.2053 20.3515 10.7518C20.3198 10.9695 20.2173 11.1706 20.0599 11.3241L16.7555 14.545L17.5356 19.0931C17.6289 19.6374 17.2633 20.1544 16.719 20.2477C16.5023 20.2849 16.2793 20.2496 16.0846 20.1472L12.0002 17.9999V4.25928Z" fill="#599195"/>
<path d="M12.0003 4.25928V17.9999L7.9159 20.1472C7.42705 20.4042 6.82242 20.2163 6.56542 19.7274C6.46308 19.5328 6.42777 19.3098 6.46495 19.0931L7.24499 14.545L3.94066 11.3241C3.54518 10.9386 3.53708 10.3055 3.92259 9.91001C4.07609 9.75252 4.27724 9.65004 4.49487 9.61841L9.06135 8.95486L11.1035 4.81693C11.2776 4.46421 11.6319 4.25956 12.0003 4.25928Z" fill="#599195"/>
</svg>
