<svg width="24" height="24" viewBox="0 0 24 24" fill="none" xmlns="http://www.w3.org/2000/svg">
<g clip-path="url(#clip0_1596_483-469871)">
<path d="M4.26 19.3426C5.52 18.4626 6.77 17.7876 8.01 17.3176C9.25 16.8476 10.58 16.6126 12 16.6126C13.42 16.6126 14.755 16.8476 16.005 17.3176C17.255 17.7876 18.51 18.4626 19.77 19.3426C20.65 18.2626 21.275 17.1726 21.645 16.0726C22.015 14.9726 22.2 13.8126 22.2 12.5926C22.2 9.69262 21.225 7.26762 19.275 5.31762C17.325 3.36762 14.9 2.39262 12 2.39262C9.1 2.39262 6.675 3.36762 4.725 5.31762C2.775 7.26762 1.8 9.69262 1.8 12.5926C1.8 13.8126 1.99 14.9726 2.37 16.0726C2.75 17.1726 3.38 18.2626 4.26 19.3426ZM12 13.4926C10.84 13.4926 9.865 13.0976 9.075 12.3076C8.285 11.5176 7.89 10.5426 7.89 9.38262C7.89 8.22262 8.285 7.24762 9.075 6.45762C9.865 5.66762 10.84 5.27262 12 5.27262C13.16 5.27262 14.135 5.66762 14.925 6.45762C15.715 7.24762 16.11 8.22262 16.11 9.38262C16.11 10.5426 15.715 11.5176 14.925 12.3076C14.135 13.0976 13.16 13.4926 12 13.4926ZM12 24.5926C10.36 24.5926 8.81 24.2776 7.35 23.6476C5.89 23.0176 4.615 22.1576 3.525 21.0676C2.435 19.9776 1.575 18.7026 0.945 17.2426C0.315 15.7826 0 14.2326 0 12.5926C0 10.9326 0.315 9.37762 0.945 7.92762C1.575 6.47762 2.435 5.20762 3.525 4.11762C4.615 3.02762 5.89 2.16762 7.35 1.53762C8.81 0.907621 10.36 0.592621 12 0.592621C13.66 0.592621 15.215 0.907621 16.665 1.53762C18.115 2.16762 19.385 3.02762 20.475 4.11762C21.565 5.20762 22.425 6.47762 23.055 7.92762C23.685 9.37762 24 10.9326 24 12.5926C24 14.2326 23.685 15.7826 23.055 17.2426C22.425 18.7026 21.565 19.9776 20.475 21.0676C19.385 22.1576 18.115 23.0176 16.665 23.6476C15.215 24.2776 13.66 24.5926 12 24.5926ZM12 22.7926C13.1 22.7926 14.175 22.6326 15.225 22.3126C16.275 21.9926 17.31 21.4326 18.33 20.6326C17.31 19.9126 16.27 19.3626 15.21 18.9826C14.15 18.6026 13.08 18.4126 12 18.4126C10.92 18.4126 9.85 18.6026 8.79 18.9826C7.73 19.3626 6.69 19.9126 5.67 20.6326C6.69 21.4326 7.725 21.9926 8.775 22.3126C9.825 22.6326 10.9 22.7926 12 22.7926ZM12 11.6926C12.68 11.6926 13.235 11.4776 13.665 11.0476C14.095 10.6176 14.31 10.0626 14.31 9.38262C14.31 8.70262 14.095 8.14762 13.665 7.71762C13.235 7.28762 12.68 7.07262 12 7.07262C11.32 7.07262 10.765 7.28762 10.335 7.71762C9.905 8.14762 9.69 8.70262 9.69 9.38262C9.69 10.0626 9.905 10.6176 10.335 11.0476C10.765 11.4776 11.32 11.6926 12 11.6926Z" fill="#599195"/>
</g>
<defs>
<clipPath id="clip0_1596_483-469871">
<rect width="24" height="24" fill="white"/>
</clipPath>
</defs>
</svg>
